<?xml version="1.0" encoding="utf-8"?>
<!-- Generator: Adobe Illustrator 20.1.0, SVG Export Plug-In . SVG Version: 6.00 Build 0)  -->
<svg version="1.1" id="Layer_1" xmlns="http://www.w3.org/2000/svg" xmlns:xlink="http://www.w3.org/1999/xlink" x="0px" y="0px"
	 viewBox="0 0 72.9 69.2" style="enable-background:new 0 0 72.9 69.2;" xml:space="preserve">
<g>
	<path d="M43.9,58c-2.1,0-3.7-1.7-3.7-3.7v-4.6c0-0.6-0.2-1.2-0.6-1.7l-1.4-1.7h-4L32.7,48c-0.4,0.5-0.6,1.1-0.6,1.7v4.6
		c0,2.1-1.7,3.7-3.7,3.7c-2.1,0-3.7-1.7-3.7-3.7v-7.4c0-1.3,0.4-2.6,1.2-3.6l3.7-5.1c0.1-0.1,0.1-0.2,0.1-0.3l0-5l-3.3,4.3
		c-1.2,1.6-3.4,1.9-5,0.8c-0.8-0.6-1.4-1.5-1.5-2.5c-0.1-1,0.1-2,0.8-2.8l6.8-8.6c0.8-1.1,2.1-1.7,3.5-1.7h10.6
		c1.4,0,2.6,0.6,3.5,1.7l6.8,8.6c0.6,0.8,0.9,1.8,0.8,2.8c-0.1,1-0.7,1.9-1.5,2.5c-1.6,1.1-3.8,0.8-5-0.8l-3.3-4.3l0,5
		c0,0.1,0,0.2,0.1,0.3l3.7,5.1c0.8,1.1,1.2,2.3,1.2,3.6v7.4C47.7,56.4,46,58,43.9,58z M34,44.5h4.2c0.5,0,0.9,0.2,1.2,0.6l1.5,1.8
		c0.7,0.8,1.1,1.8,1.1,2.9v4.6c0,1,0.8,1.9,1.9,1.9c1,0,1.9-0.8,1.9-1.9v-7.4c0-0.9-0.3-1.8-0.8-2.5l-3.7-5.1
		c-0.3-0.4-0.5-0.9-0.5-1.4l0-7.8c0-0.4,0.3-0.7,0.6-0.9c0.4-0.1,0.8,0,1,0.3l4.9,6.5c0.6,0.8,1.7,1,2.5,0.4
		c0.4-0.3,0.7-0.7,0.8-1.2c0.1-0.5-0.1-1-0.4-1.4c0,0-6.8-8.6-6.8-8.6c-0.5-0.6-1.2-1-2-1H30.8c-0.8,0-1.5,0.4-2,1L22,33.9
		c-0.3,0.4-0.4,0.9-0.4,1.4c0.1,0.5,0.3,0.9,0.8,1.2c0.8,0.6,1.9,0.4,2.5-0.4l4.9-6.5c0.2-0.3,0.7-0.4,1-0.3
		c0.4,0.1,0.6,0.5,0.6,0.9l0,7.8c0,0.5-0.2,1-0.5,1.4l-3.7,5.1c-0.5,0.7-0.8,1.6-0.8,2.5v7.4c0,1,0.8,1.9,1.9,1.9
		c1,0,1.9-0.8,1.9-1.9v-4.6c0-1.1,0.4-2.1,1.1-2.9l1.5-1.8C33.1,44.7,33.5,44.5,34,44.5z"/>
	<path d="M33.5,46.6c-0.3,0-0.5-0.1-0.7-0.3l-4.3-5.4c-0.3-0.4-0.3-1,0.1-1.3c0.4-0.3,1-0.3,1.3,0.1l4.3,5.4c0.3,0.4,0.3,1-0.1,1.3
		C33.9,46.5,33.7,46.6,33.5,46.6z"/>
	<path d="M38.8,46.6c-0.2,0-0.4-0.1-0.6-0.2c-0.4-0.3-0.5-0.9-0.1-1.3l4.3-5.4c0.3-0.4,0.9-0.5,1.3-0.1c0.4,0.3,0.5,0.9,0.1,1.3
		l-4.3,5.4C39.3,46.4,39.1,46.6,38.8,46.6z"/>
	<path d="M41.7,36.9H30.6c-0.5,0-0.9-0.4-0.9-0.9s0.4-0.9,0.9-0.9h11.1c0.5,0,0.9,0.4,0.9,0.9S42.2,36.9,41.7,36.9z"/>
	<path d="M36.1,20.9c-3.2,0-5.7-2.6-5.7-5.7c0-3.2,2.6-5.7,5.7-5.7c3.2,0,5.7,2.6,5.7,5.7C41.9,18.3,39.3,20.9,36.1,20.9z
		 M36.1,11.3c-2.1,0-3.9,1.7-3.9,3.9c0,2.1,1.7,3.9,3.9,3.9c2.1,0,3.9-1.7,3.9-3.9C40,13,38.3,11.3,36.1,11.3z"/>
</g>
</svg>
