<?xml version="1.0" encoding="utf-8"?>
<!-- Generator: Adobe Illustrator 20.1.0, SVG Export Plug-In . SVG Version: 6.00 Build 0)  -->
<svg version="1.1" id="Layer_1" xmlns="http://www.w3.org/2000/svg" xmlns:xlink="http://www.w3.org/1999/xlink" x="0px" y="0px"
	 viewBox="0 0 344.6 327.1" style="enable-background:new 0 0 344.6 327.1;" xml:space="preserve">
<path d="M145.3,257.6c6.2,8.4,16.4,13.4,27.3,13.4h0.5c10.6,0,20.3-4.9,26.6-13.3c6.3-8.5,8.2-19.2,5.1-29.3l-11.4-38.1h0
	c-5.3-17.6-6.7-30.8-7.9-45c-4.1-49.9,3.2-85.8,24.4-119.9c1.8-3,1.2-6.8-1.4-9.1c-1.5-1.2-3.3-1.8-5.2-1.6
	c-1.9,0.2-3.6,1.2-4.8,2.7c-15.8,20.5-35.5,66.3-38.9,128.1c-0.6,11.3-2,25.5-7.9,44.9l-11.4,38.1
	C137.2,238.5,139,249.1,145.3,257.6z M146.6,230.3l11.4-38.1c6-20,7.5-34.7,8.1-46.4c3.3-60.2,22.3-104.6,37.5-124.4l0.4-0.1
	c0.1,0.1,0.1,0.3,0,0.4c-22,35.5-29.6,72.5-25.3,124c1.2,14.1,2.6,28.2,8.1,46.4l11.4,38.1c2.4,8.1,0.9,16.6-4.1,23.4
	c-5,6.8-12.8,10.6-21.2,10.6h-0.5c-8.8,0-16.9-4-21.9-10.7C145.7,246.9,144.2,238.4,146.6,230.3z M158.7,247.7
	c-3.1-4.3-4-9.4-2.5-14.4l3.8-12.7l6.4,1.9l-3.8,12.7c-0.9,3-0.4,6,1.5,8.5c1.8,2.5,5,3.9,8.5,3.9v6.7
	C167,254.3,161.8,251.8,158.7,247.7z M211.8,126.6c-4.6,0-9,1.9-12.1,5.3c-3.1,3.3-4.6,7.9-4.3,12.5c1.1,13.7,2.5,26.4,7.5,43
	l11.4,38.1c3.9,13.2,1.5,27.1-6.7,38.1c-8.2,11.1-20.8,17.4-34.6,17.4h-0.5c-14,0-27.2-6.5-35.3-17.5c-8.2-11-10.6-24.9-6.6-38
	l11.4-38.1c5.5-18.3,6.8-31.2,7.4-42.5l0-0.9c0.3-4.5-1.4-9-4.5-12.3c-3.1-3.3-7.4-5.1-11.9-5.1H25l-0.1,183.9h294.4V126.6H211.8z
	 M204.6,136.4c1.8-2,4.5-3.2,7.2-3.2h100.8v32.5c-2.8,0.8-4.9,1.9-6.8,3c-2.8,1.6-5.1,3-10.1,3c-5,0-7.4-1.4-10.1-3
	c-3.1-1.8-6.7-3.9-13.5-3.9c-6.8,0-10.3,2-13.4,3.9c-2.7,1.6-5.1,3-10.1,3c-5,0-7.4-1.4-10.1-3c-3.1-1.8-6.7-3.9-13.5-3.9
	c-6.8,0-10.3,2-13.4,3.9c-1.8,1.1-3.5,2-5.8,2.5c-2-9.7-2.9-18.4-3.6-27.6C201.9,141,202.8,138.4,204.6,136.4z M133.1,133.3
	c2.7,0,5.2,1.1,7,3c1.9,2,2.8,4.6,2.7,7.3l-0.1,0.9c-0.4,7.7-1.2,16.3-3.5,26.9c-2.7-0.5-4.5-1.5-6.5-2.7c-3.1-1.8-6.7-3.9-13.5-3.9
	c-6.8,0-10.4,2.1-13.5,3.9c-2.7,1.6-5.1,3-10.1,3c-5,0-7.4-1.4-10.1-3c-3.1-1.8-6.7-3.9-13.4-3.9c-6.8,0-10.4,2.1-13.5,3.9
	c-2.7,1.6-5.1,3-10.1,3c-5,0-7.4-1.4-10.1-3c-1.9-1.1-3.9-2.3-6.8-3l0-32.5H133.1z M31.6,303.8l0.1-131c1.2,0.5,2.3,1.1,3.4,1.8
	c3.1,1.8,6.7,3.9,13.5,3.9c6.8,0,10.3-2,13.4-3.9c2.7-1.6,5.1-3,10.1-3c5,0,7.4,1.4,10.1,3c3.1,1.8,6.7,3.9,13.5,3.9
	c6.8,0,10.3-2,13.4-3.9c2.7-1.6,5.1-3,10.1-3c5,0,7.4,1.4,10.1,3c2.2,1.3,4.6,2.7,8.3,3.4c-0.6,2.4-1.3,4.9-2.1,7.5l-11.4,38.1
	c-4.6,15.2-1.8,31.2,7.6,44c9.4,12.7,24.6,20.2,40.7,20.2h0.5c15.9,0,30.5-7.3,40-20.1c9.5-12.7,12.3-28.8,7.7-44.1l-11.4-38.1
	c-0.8-2.7-1.5-5.2-2.1-7.6c3.3-0.7,5.6-2,7.7-3.2c2.7-1.6,5.1-3,10.1-3c5,0,7.4,1.4,10.1,3c3.1,1.8,6.7,3.9,13.4,3.9
	c6.8,0,10.4-2.1,13.5-3.9c2.7-1.6,5.1-3,10.1-3c5,0,7.4,1.4,10.1,3c3.1,1.8,6.7,3.9,13.4,3.9c6.8,0,10.4-2.1,13.5-3.9
	c1.1-0.7,2.2-1.3,3.4-1.8v131H31.6z M85.2,248.4c-8.5,0-15.5,6.9-15.5,15.5c0,8.5,6.9,15.5,15.5,15.5s15.5-6.9,15.5-15.5
	C100.7,255.3,93.8,248.4,85.2,248.4z M85.2,272.6c-4.8,0-8.8-3.9-8.8-8.8c0-4.8,3.9-8.8,8.8-8.8c4.8,0,8.8,3.9,8.8,8.8
	C94,268.7,90.1,272.6,85.2,272.6z M274.5,230.7c-8.8,0-16,7.2-16,16c0,8.8,7.2,16,16,16c8.8,0,16-7.2,16-16
	C290.6,237.9,283.4,230.7,274.5,230.7z M274.5,256.1c-5.2,0-9.4-4.2-9.4-9.4c0-5.2,4.2-9.4,9.4-9.4c5.2,0,9.4,4.2,9.4,9.4
	C283.9,251.9,279.7,256.1,274.5,256.1z M262.4,207.8c0-6.6-5.4-12-12-12c-6.6,0-12,5.4-12,12c0,6.6,5.4,12,12,12
	C257,219.8,262.4,214.4,262.4,207.8z M250.4,213.1c-2.9,0-5.3-2.4-5.3-5.3s2.4-5.3,5.3-5.3c2.9,0,5.3,2.4,5.3,5.3
	S253.3,213.1,250.4,213.1z M102.7,197.6c-5.7,0-10.3,4.6-10.3,10.3s4.6,10.3,10.3,10.3c5.7,0,10.3-4.6,10.3-10.3
	S108.4,197.6,102.7,197.6z M102.7,211.4c-2,0-3.6-1.6-3.6-3.6c0-2,1.6-3.6,3.6-3.6c2,0,3.6,1.6,3.6,3.6
	C106.3,209.8,104.7,211.4,102.7,211.4z M61.2,220.4c-6.6,0-12,5.4-12,12c0,6.6,5.4,12,12,12c6.6,0,12-5.4,12-12
	C73.2,225.8,67.8,220.4,61.2,220.4z M61.2,237.8c-2.9,0-5.3-2.4-5.3-5.3c0-2.9,2.4-5.3,5.3-5.3c2.9,0,5.3,2.4,5.3,5.3
	C66.5,235.4,64.1,237.8,61.2,237.8z"/>
</svg>
