<?xml version="1.0" encoding="utf-8"?>
<!-- Generator: Adobe Illustrator 20.1.0, SVG Export Plug-In . SVG Version: 6.00 Build 0)  -->
<svg version="1.1" id="Layer_1" xmlns="http://www.w3.org/2000/svg" xmlns:xlink="http://www.w3.org/1999/xlink" x="0px" y="0px"
	 viewBox="0 0 53.4 59.2" style="enable-background:new 0 0 53.4 59.2;" xml:space="preserve">
<g>
	<path d="M50.8,31.1c-4.7-0.5-6.4-4.8-6.5-5.2c-1.9-9.3-10.1-16.4-20-16.4c-3.7,0-7.3,1-10.4,2.8c-1.3-5,0.6-7.7,0.7-7.8
		c0.3-0.5,0.2-1.1-0.2-1.5c-0.5-0.3-1.1-0.2-1.5,0.2c-0.1,0.2-2.7,3.8-0.8,10.3c-2.4,1.8-4.5,4.2-5.9,7c-2.6,1.3-4.4,5.1-4.4,9.4
		c0,4.3,1.8,8.1,4.4,9.4c1.5,2.8,3.5,5.2,6,7.1c-1.7,5.8,0.4,10.5,0.5,10.7c0.2,0.4,0.6,0.6,0.9,0.6c0.1,0,0.3,0,0.4-0.1
		c0.5-0.2,0.7-0.9,0.5-1.4c0,0-1.8-3.9-0.6-8.7c3.1,1.8,6.6,2.8,10.3,2.8c5.5,0,10.4-2.2,14.1-5.7c0,0,0,0,0,0c0,0,4-2.5,8.7-0.8
		c0.5,0.2,1.1-0.1,1.3-0.6c0.2-0.5-0.1-1.1-0.6-1.3c-2.5-1-4.9-0.9-6.7-0.5c2.2-3.2,3.4-7,3.5-11.1c1.3,1.3,3.2,2.6,5.9,2.8
		c0,0,0.1,0,0.1,0c0.5,0,1-0.4,1-0.9C51.7,31.6,51.3,31.1,50.8,31.1z M8,36.4c-0.2,0.5-0.4,0.9-0.6,1.2c-0.1,0-0.1-0.1-0.2-0.1
		c-1.7-0.7-3.4-3.5-3.4-7.6c0-4.1,1.7-6.9,3.4-7.6c0.1,0,0.1-0.1,0.2-0.1c0.2,0.3,0.4,0.7,0.6,1.1c-1.2,1.3-1.7,4-1.7,6.6
		C6.3,32.4,6.9,35.1,8,36.4z M24.3,48.2c-6.4,0-12.2-3.3-15.5-8.6c0.2-0.4,0.7-1.2,1.2-2.3c2.3-0.1,3.4-3.9,3.4-7.4
		c0-3.5-1-7.3-3.3-7.4c-0.5-1-1-1.8-1.2-2.2c1.4-2.2,3.2-4.1,5.3-5.5c0,0,0,0,0,0c3-2,6.5-3.1,10.3-3.1c10.1,0,18.3,8.2,18.3,18.3
		C42.6,40,34.4,48.2,24.3,48.2z M8.4,29.9c0-1.9,0.3-3.3,0.7-4.2c0.3-0.7,0.6-1.1,0.7-1.2c0.4,0.1,1.4,1.9,1.4,5.3
		c0,3.4-1,5.2-1.4,5.3c-0.2-0.1-0.5-0.5-0.8-1.2C8.7,33.1,8.4,31.7,8.4,29.9z"/>
	<path d="M25.5,15.5c-0.6,0-1,0.5-1,1c0,0.6,0.5,1,1,1c6.8,0,12.4,5.5,12.4,12.4c0,6.8-5.5,12.4-12.4,12.4c-0.6,0-1,0.5-1,1
		c0,0.6,0.5,1,1,1c8,0,14.4-6.5,14.4-14.4C39.9,22,33.4,15.5,25.5,15.5z"/>
	<path d="M49.2,36.7L46,35.7c-0.5-0.2-1.1,0.2-1.3,0.7c-0.2,0.6,0.2,1.1,0.7,1.3l3.3,0.9c0.1,0,0.2,0,0.3,0c0.5,0,0.9-0.3,1-0.8
		C50.1,37.4,49.8,36.8,49.2,36.7z"/>
</g>
</svg>
