<?xml version="1.0" encoding="utf-8"?>
<!-- Generator: Adobe Illustrator 20.1.0, SVG Export Plug-In . SVG Version: 6.00 Build 0)  -->
<svg version="1.1" id="Layer_1" xmlns="http://www.w3.org/2000/svg" xmlns:xlink="http://www.w3.org/1999/xlink" x="0px" y="0px"
	 viewBox="0 0 344.6 327.1" style="enable-background:new 0 0 344.6 327.1;" xml:space="preserve">
<g>
	<g>
		<path d="M171.7,314.7c-16.1,0-28.8-8.1-28.8-18.3c0-6.5,5-12.3,13.4-15.6v-15.3c0-4.9-3.4-9-8.4-10.3c-8.7-2.2-17.1-5.7-24.8-10.3
			c-4.5-2.7-9.8-2.1-13.3,1.3L99,257.1c3.6,8.2,3.1,15.8-1.5,20.5c-7.3,7.3-21.9,4-33.3-7.4c-11.4-11.4-14.7-26-7.4-33.3
			c4.6-4.6,12.2-5.1,20.5-1.5l10.8-10.8c3.4-3.5,4-8.8,1.3-13.3c-4.6-7.8-8.1-16.1-10.3-24.8c-1.3-5-5.4-8.4-10.3-8.4H53.5
			c-3.3,8.3-9,13.4-15.5,13.4c-10.3,0-18.3-12.6-18.3-28.8c0-16.1,8.1-28.8,18.3-28.8c6.5,0,12.3,5,15.5,13.4h15.3
			c4.9,0,9-3.4,10.3-8.4c2.2-8.7,5.7-17.1,10.3-24.8c2.7-4.5,2.1-9.8-1.3-13.3L77.3,90c-8.2,3.6-15.8,3.1-20.5-1.5
			c-7.3-7.3-4-21.9,7.4-33.3c11.4-11.4,26-14.7,33.3-7.4c4.6,4.6,5.1,12.2,1.5,20.5l10.8,10.8c3.5,3.5,8.8,4,13.3,1.3
			c7.8-4.6,16.1-8.1,24.8-10.3c5-1.3,8.4-5.4,8.4-10.3V44.5c-8.3-3.3-13.4-9-13.4-15.5c0-10.3,12.6-18.3,28.8-18.3
			c16.1,0,28.8,8.1,28.8,18.3c0,6.5-5,12.3-13.4,15.5v15.3c0,4.9,3.4,9,8.4,10.3c8.7,2.2,17.1,5.7,24.8,10.3
			c4.5,2.7,9.8,2.1,13.3-1.3l10.8-10.8c-3.6-8.2-3.1-15.8,1.5-20.5c7.3-7.3,21.9-4,33.3,7.4s14.6,26,7.4,33.3
			c-4.6,4.6-12.2,5.1-20.5,1.5l-10.8,10.8c-3.5,3.4-4,8.8-1.3,13.3c4.6,7.8,8.1,16.1,10.3,24.8c1.3,5,5.4,8.4,10.3,8.4h15.3
			c3.3-8.3,9-13.4,15.6-13.4c10.3,0,18.3,12.6,18.3,28.8c0,16.1-8.1,28.8-18.3,28.8c-6.5,0-12.3-5-15.6-13.4h-15.3
			c-4.9,0-9,3.4-10.3,8.4c-2.2,8.7-5.7,17.1-10.3,24.8c-2.7,4.5-2.1,9.8,1.3,13.3l10.8,10.8c8.2-3.6,15.8-3.1,20.5,1.5
			c7.3,7.3,4,21.9-7.4,33.3c-11.4,11.4-26,14.7-33.3,7.4c-4.6-4.6-5.1-12.2-1.5-20.5l-10.8-10.8c-3.5-3.5-8.8-4-13.3-1.3
			c-7.8,4.6-16.1,8.1-24.8,10.3c-5,1.3-8.4,5.4-8.4,10.3v15.3c8.3,3.3,13.4,9,13.4,15.6C200.4,306.6,187.8,314.7,171.7,314.7z
			 M117.2,233.4c3.7,0,7.5,1,10.9,3c7,4.1,14.5,7.2,22.2,9.2c9.3,2.4,15.8,10.6,15.8,19.9v18.9c0,2.2-1.5,4.2-3.6,4.8
			c-6.4,1.8-9.8,5-9.8,7.2c0,3.4,7.4,8.4,18.9,8.4c11.5,0,18.9-5,18.9-8.4c0-2.2-3.4-5.5-9.8-7.2c-2.1-0.6-3.6-2.5-3.6-4.8v-18.9
			c0-9.3,6.5-17.5,15.8-19.9c7.8-2,15.3-5.1,22.2-9.2c8.3-4.9,18.7-3.7,25.3,2.9l13.3,13.3c1.6,1.6,1.9,4,0.8,5.9
			c-3.3,5.8-3.4,10.4-1.8,12c2.4,2.4,11.2,0.8,19.3-7.4c8.1-8.1,9.8-16.9,7.4-19.3c-1.6-1.6-6.2-1.5-12,1.8
			c-1.9,1.1-4.4,0.8-5.9-0.8l-13.3-13.3c-6.6-6.6-7.8-17-2.9-25.3c4.1-7,7.2-14.4,9.2-22.2c2.4-9.3,10.6-15.8,19.9-15.8h18.9
			c2.2,0,4.2,1.5,4.8,3.6c1.8,6.4,5,9.8,7.2,9.8c3.4,0,8.4-7.4,8.4-18.9c0-11.5-5-18.9-8.4-18.9c-2.2,0-5.5,3.4-7.2,9.8
			c-0.6,2.1-2.5,3.6-4.8,3.6h-18.9c-9.3,0-17.5-6.5-19.9-15.8c-2-7.8-5.1-15.3-9.2-22.3c-4.9-8.3-3.7-18.7,2.9-25.3l13.3-13.3
			c1.6-1.6,4-1.9,5.9-0.8c5.8,3.3,10.4,3.4,12,1.8c2.4-2.4,0.8-11.2-7.4-19.3c-8.1-8.1-16.9-9.8-19.3-7.4c-1.6,1.6-1.5,6.2,1.8,12
			c1.1,1.9,0.8,4.4-0.8,5.9l-13.3,13.3c-6.6,6.6-17,7.8-25.3,2.9c-7-4.1-14.4-7.2-22.3-9.2c-9.3-2.4-15.8-10.6-15.8-19.9V41
			c0-2.2,1.5-4.2,3.6-4.8c6.4-1.8,9.8-5,9.8-7.2c0-3.4-7.4-8.4-18.9-8.4c-11.5,0-18.9,5-18.9,8.4c0,2.2,3.4,5.4,9.8,7.2
			c2.1,0.6,3.6,2.5,3.6,4.8v18.9c0,9.3-6.5,17.5-15.8,19.9c-7.8,2-15.3,5.1-22.3,9.2c-8.3,4.9-18.7,3.7-25.3-2.9L89.5,72.7
			c-1.6-1.6-1.9-4-0.8-5.9c3.3-5.8,3.4-10.4,1.8-12c-2.4-2.4-11.2-0.8-19.3,7.4c-8.1,8.1-9.8,16.9-7.4,19.3c1.6,1.6,6.2,1.5,12-1.8
			c1.9-1.1,4.4-0.8,5.9,0.8l13.3,13.3c6.6,6.6,7.8,17,2.9,25.3c-4.1,7-7.2,14.4-9.2,22.3c-2.4,9.3-10.6,15.8-19.9,15.8H50
			c-2.2,0-4.2-1.5-4.8-3.6c-1.8-6.4-5-9.8-7.2-9.8c-3.4,0-8.4,7.4-8.4,18.9c0,11.5,5,18.9,8.4,18.9c2.3,0,5.5-3.4,7.2-9.8
			c0.6-2.1,2.5-3.6,4.8-3.6h18.9c9.3,0,17.5,6.5,19.9,15.8c2,7.8,5.1,15.3,9.2,22.3c4.9,8.3,3.7,18.7-2.9,25.3l-13.3,13.3
			c-1.6,1.6-4,1.9-5.9,0.8c-5.8-3.3-10.4-3.4-12-1.8c-2.4,2.4-0.8,11.2,7.4,19.3c8.1,8.1,16.9,9.8,19.3,7.4c1.6-1.6,1.5-6.2-1.8-12
			c-1.1-1.9-0.8-4.4,0.8-5.9l13.3-13.3C106.7,235.4,111.9,233.4,117.2,233.4z"/>
	</g>
	<g>
		<path d="M150.5,183.4c-17.9,0-32.5-14.6-32.5-32.5s14.6-32.5,32.5-32.5S183,133,183,150.9S168.4,183.4,150.5,183.4z M150.5,128.4
			c-12.4,0-22.6,10.1-22.6,22.6c0,12.4,10.1,22.6,22.6,22.6s22.6-10.1,22.6-22.6C173.1,138.5,162.9,128.4,150.5,128.4z"/>
	</g>
	<g>
		<path d="M220,168.7c-1,0-2-0.3-2.9-0.9c-2.9-2-8-6.6-10.1-14.2c-3.3-11.8,3.1-21.4,4.5-23.2c1.6-2.2,4.7-2.7,6.9-1
			c2.2,1.6,2.7,4.7,1,6.9c-0.9,1.2-5,7.3-2.9,14.7c1.3,4.7,4.6,7.6,6.3,8.9c2.2,1.6,2.7,4.7,1.2,6.9
			C223.1,168,221.5,168.7,220,168.7z"/>
	</g>
	<g>
		<path d="M164.1,219.7c-1.3,0-2.5-0.5-3.5-1.4c-1.9-1.9-1.9-5.1,0-7c2.8-2.8,10.7-9.5,22.4-10.2c5.5-0.3,11.2,0.8,16.4,3.2
			c2.5,1.2,3.5,4.1,2.4,6.6c-1.2,2.5-4.1,3.5-6.6,2.4c-3.7-1.7-7.7-2.6-11.6-2.3c-8.3,0.5-13.9,5.3-15.9,7.3
			C166.6,219.3,165.3,219.7,164.1,219.7z"/>
	</g>
</g>
</svg>
