<?xml version="1.0" encoding="utf-8"?>
<!-- Generator: Adobe Illustrator 20.1.0, SVG Export Plug-In . SVG Version: 6.00 Build 0)  -->
<svg version="1.1" id="Layer_1" xmlns="http://www.w3.org/2000/svg" xmlns:xlink="http://www.w3.org/1999/xlink" x="0px" y="0px"
	 viewBox="0 0 53.4 50.7" style="enable-background:new 0 0 53.4 50.7;" xml:space="preserve">
<g>
	<path d="M22.5,2.7c-0.4,0-0.7-0.3-0.8-0.7c-0.1-0.4,0.2-0.8,0.6-0.9c0.4-0.1,0.8-0.1,1.3-0.1c0.4,0,0.8,0.3,0.8,0.7
		c0,0.4-0.3,0.8-0.7,0.8c-0.4,0-0.8,0.1-1.2,0.1C22.6,2.7,22.5,2.7,22.5,2.7z"/>
	<path d="M8.9,19.9c-0.4,0-0.7-0.3-0.8-0.7c0-0.5-0.1-0.9-0.1-1.4c0-0.4,0-0.9,0-1.3l0-0.1c0-0.4,0.4-0.7,0.8-0.7
		c0.4,0,0.7,0.4,0.7,0.8l0,0.1c0,0.4,0,0.8,0,1.2c0,0.4,0,0.9,0.1,1.3C9.7,19.5,9.4,19.9,8.9,19.9C8.9,19.9,8.9,19.9,8.9,19.9z
		 M10.2,12.1c-0.1,0-0.2,0-0.3-0.1c-0.4-0.2-0.6-0.6-0.4-1c0.4-0.9,0.8-1.7,1.4-2.5c0.2-0.4,0.7-0.4,1.1-0.2
		c0.4,0.2,0.4,0.7,0.2,1.1c-0.5,0.7-0.9,1.5-1.2,2.2C10.8,11.9,10.5,12.1,10.2,12.1z M15.2,5.9c-0.2,0-0.5-0.1-0.6-0.3
		c-0.3-0.3-0.2-0.8,0.1-1.1c0.7-0.6,1.5-1.1,2.4-1.5c0.4-0.2,0.8-0.1,1,0.3c0.2,0.4,0.1,0.8-0.3,1c-0.8,0.4-1.5,0.9-2.2,1.4
		C15.5,5.8,15.3,5.9,15.2,5.9z"/>
	<path d="M10.8,26.2c-0.3,0-0.5-0.1-0.7-0.4c-0.2-0.4-0.4-0.8-0.6-1.1c-0.2-0.4,0-0.8,0.4-1c0.4-0.2,0.8,0,1,0.4
		c0.2,0.4,0.3,0.7,0.5,1c0.2,0.4,0.1,0.8-0.3,1C11,26.2,10.9,26.2,10.8,26.2z"/>
	<path d="M29.6,48.7h-18c-0.3,0-0.5-0.1-0.7-0.4c-0.1-0.2-0.1-0.5,0-0.8c0.6-1.2,1.2-2.7,1.6-4.3c1.4-5.7,0.5-11.9-2.5-17.5
		c-0.2-0.4-0.1-0.8,0.3-1c0.4-0.2,0.8-0.1,1,0.3c3.2,5.9,4.2,12.5,2.6,18.6c-0.3,1.3-0.7,2.5-1.2,3.5h16v-7.5c0-0.4,0.3-0.8,0.8-0.8
		h5.6c2.4,0,4.4-2,4.4-4.4v-0.6l-0.7-0.5c-0.1-0.1-0.2-0.1-0.2-0.2c-0.5-0.9-0.2-2,0.7-2.6l1.5-0.9v-1.7c0-0.8,0.6-1.4,1.4-1.4h0.6
		c0.2,0,0.4-0.2,0.4-0.2c0-0.1,0.1-0.3,0-0.5L40,20.9c-0.1-0.2-0.1-0.4-0.1-0.5c0.2-0.9,0.2-1.8,0.2-2.6c0-4.2-1.8-8.3-4.9-11.2
		c-3.1-2.9-7.2-4.4-11.5-4.1c-0.4,0-0.8-0.3-0.8-0.7c0-0.4,0.3-0.8,0.7-0.8c4.7-0.3,9.2,1.3,12.6,4.5c3.4,3.2,5.3,7.6,5.3,12.3
		c0,0.8-0.1,1.6-0.2,2.5l3,4.6c0.4,0.6,0.4,1.4,0.1,2c-0.3,0.6-1,1-1.8,1h-0.5v2c0,0.3-0.1,0.5-0.4,0.7l-1.8,1.1
		C40,32,40,32.1,40,32.3l0.8,0.6c0.2,0.1,0.3,0.4,0.3,0.6v1c0,3.3-2.7,5.9-5.9,5.9h-4.8v7.5C30.4,48.4,30.1,48.7,29.6,48.7z"/>
	<path d="M29.6,40.5h-5.6c-0.4,0-0.8-0.3-0.8-0.8s0.3-0.8,0.8-0.8h5.6c0.4,0,0.8,0.3,0.8,0.8S30.1,40.5,29.6,40.5z"/>
	<path d="M31.2,48.7H10.1c-0.4,0-0.8-0.3-0.8-0.8c0-0.4,0.3-0.8,0.8-0.8h21.1c0.4,0,0.8,0.3,0.8,0.8C32,48.4,31.7,48.7,31.2,48.7z"
		/>
	<path d="M25,32c-0.4,0-0.8-0.3-0.8-0.8s0.3-0.8,0.8-0.8c0.4,0,0.8,0,1.2-0.1c0.4,0,0.8,0.3,0.8,0.7c0,0.4-0.3,0.8-0.7,0.8
		C25.8,32,25.4,32,25,32z"/>
	<path d="M30.7,30.7c-0.3,0-0.6-0.2-0.7-0.4c-0.2-0.4,0-0.8,0.4-1c0.7-0.3,1.3-0.7,1.9-1.1c0.3-0.2,0.8-0.2,1.1,0.2
		c0.2,0.3,0.2,0.8-0.2,1.1c-0.7,0.5-1.4,0.9-2.1,1.2C30.9,30.7,30.8,30.7,30.7,30.7z M36,26.2c-0.2,0-0.3,0-0.4-0.1
		c-0.3-0.2-0.4-0.7-0.2-1.1c0.4-0.6,0.8-1.2,1.1-1.9c0.2-0.4,0.6-0.5,1-0.4c0.4,0.2,0.5,0.6,0.4,1c-0.3,0.7-0.8,1.5-1.2,2.1
		C36.5,26.1,36.2,26.2,36,26.2z M38.3,19.7C38.3,19.7,38.3,19.7,38.3,19.7c-0.5,0-0.8-0.4-0.8-0.8c0-0.4,0-0.7,0-1.1
		c0-0.4,0-0.7,0-1.1c0-0.4,0.3-0.8,0.7-0.8c0.4,0,0.8,0.3,0.8,0.7c0,0.4,0.1,0.8,0.1,1.2c0,0.4,0,0.8-0.1,1.2
		C39.1,19.4,38.7,19.7,38.3,19.7z M37.2,12.9c-0.3,0-0.6-0.2-0.7-0.4c-0.3-0.7-0.7-1.3-1.1-1.9c-0.2-0.3-0.2-0.8,0.2-1.1
		c0.3-0.2,0.8-0.2,1.1,0.2c0.5,0.7,0.9,1.4,1.2,2.1c0.2,0.4,0,0.8-0.4,1C37.4,12.9,37.3,12.9,37.2,12.9z M32.7,7.6
		c-0.2,0-0.3,0-0.4-0.1C31.7,7,31,6.6,30.4,6.3c-0.4-0.2-0.5-0.6-0.4-1c0.2-0.4,0.6-0.5,1-0.4c0.7,0.4,1.5,0.8,2.1,1.2
		c0.3,0.2,0.4,0.7,0.2,1.1C33.2,7.5,33,7.6,32.7,7.6z"/>
	<path d="M26.2,5.2C26.2,5.2,26.1,5.2,26.2,5.2c-0.5,0-0.8-0.1-1.2-0.1c-0.4,0-0.8-0.3-0.8-0.8c0-0.4,0.3-0.8,0.8-0.8
		c0.4,0,0.9,0,1.3,0.1c0.4,0,0.7,0.4,0.7,0.8C26.9,4.9,26.6,5.2,26.2,5.2z"/>
	<path d="M25,32c-7.8,0-14.2-6.4-14.2-14.2C10.8,10,17.1,3.6,25,3.6c0.4,0,0.8,0.3,0.8,0.8c0,0.4-0.3,0.8-0.8,0.8
		c-7,0-12.7,5.7-12.7,12.7c0,7,5.7,12.7,12.7,12.7c0.4,0,0.8,0.3,0.8,0.8S25.4,32,25,32z"/>
	<path d="M25,28.7c-6,0-10.9-4.9-10.9-10.9S18.9,6.8,25,6.8c0.4,0,0.8,0.3,0.8,0.8v6.6c0,0.4-0.3,0.8-0.8,0.8
		c-1.5,0-2.8,1.2-2.8,2.8s1.2,2.8,2.8,2.8c1.5,0,2.8-1.2,2.8-2.8c0-0.4,0.3-0.8,0.8-0.8h6.6c0.4,0,0.8,0.3,0.8,0.8
		C35.9,23.8,31,28.7,25,28.7z M24.2,8.4c-4.8,0.4-8.6,4.4-8.6,9.4c0,5.2,4.2,9.4,9.4,9.4c4.9,0,9-3.8,9.4-8.6h-5.2
		c-0.4,2-2.1,3.5-4.2,3.5c-2.4,0-4.3-1.9-4.3-4.3c0-2.1,1.5-3.9,3.5-4.2V8.4z"/>
	<path d="M35,15.9h-4.8c-0.4,0-0.8-0.3-0.8-0.8c0-1-0.8-1.8-1.8-1.8c-0.4,0-0.8-0.3-0.8-0.8V7.8c0-0.4,0.3-0.8,0.8-0.8
		c4.5,0,8.1,3.6,8.1,8.1C35.7,15.6,35.4,15.9,35,15.9z M30.8,14.4h3.3c-0.4-3-2.8-5.4-5.8-5.8v3.3C29.6,12.2,30.5,13.2,30.8,14.4z"
		/>
</g>
</svg>
