<?xml version="1.0" encoding="utf-8"?>
<!-- Generator: Adobe Illustrator 20.1.0, SVG Export Plug-In . SVG Version: 6.00 Build 0)  -->
<svg version="1.1" id="Layer_1" xmlns="http://www.w3.org/2000/svg" xmlns:xlink="http://www.w3.org/1999/xlink" x="0px" y="0px"
	 viewBox="0 0 211.9 201.2" style="enable-background:new 0 0 211.9 201.2;" xml:space="preserve">
<g>
	<path d="M104.3,50.1c8.6,0,15.7-7,15.7-15.7c0-8.6-7-15.7-15.7-15.7s-15.7,7-15.7,15.7C88.6,43,95.7,50.1,104.3,50.1z M104.3,24.3
		c5.5,0,10.1,4.5,10.1,10.1c0,5.5-4.5,10.1-10.1,10.1s-10.1-4.5-10.1-10.1C94.3,28.9,98.8,24.3,104.3,24.3z"/>
	<path d="M88,72.3L86.5,88c-0.1,1.5,1,2.9,2.5,3c0.1,0,0.2,0,0.3,0c1.4,0,2.7-1.1,2.8-2.5l1.4-15.7c0.1-1.5-1-2.9-2.5-3
		C89.5,69.6,88.1,70.7,88,72.3z"/>
	<path d="M120.1,69.7c-1.5,0.1-2.7,1.4-2.6,3l0.9,15.7c0.1,1.5,1.3,2.6,2.8,2.6c0.1,0,0.1,0,0.2,0c1.5-0.1,2.7-1.4,2.6-3l-0.9-15.7
		C123,70.8,121.6,69.7,120.1,69.7z"/>
	<path d="M105.5,118.9c-1.5,0-2.8,1.3-2.8,2.8v60.6c0,1.5,1.3,2.8,2.8,2.8c1.5,0,2.8-1.3,2.8-2.8v-60.6
		C108.3,120.1,107.1,118.9,105.5,118.9z"/>
	<path d="M77.6,89.9c0.2,0,0.3,0,0.5,0c1.3,0,2.5-1,2.8-2.3l3.6-20.5c0,0,0,0,0-0.1c0.8-4.9,4.4-8.9,9.2-10.2l4.5-1.2
		c1.5-0.4,2.4-1.9,2-3.4c-0.4-1.5-1.9-2.4-3.4-2l-4.5,1.2c-7,1.8-12.2,7.6-13.4,14.7l-3.6,20.4C75.1,88.2,76.1,89.6,77.6,89.9z"/>
	<path d="M113,50.3c-1.5-0.4-3,0.5-3.4,2c-0.4,1.5,0.5,3,2,3.4l4.5,1.2c4.8,1.3,8.5,5.3,9.2,10.2c0,0,0,0,0,0.1l3.6,20.5
		c0.2,1.4,1.4,2.3,2.8,2.3c0.2,0,0.3,0,0.5,0c1.5-0.3,2.5-1.7,2.3-3.3l-3.6-20.4c-1.1-7.1-6.4-12.9-13.4-14.7L113,50.3z"/>
	<path d="M139.7,71.9c-1.5-0.2-3,0.8-3.2,2.4c-0.2,1.5,0.8,3,2.4,3.2c19.4,2.8,23.9,6.8,24.1,7.7c0,0-1.2,3.3-16,6.4
		c-11.1,2.3-25.7,3.5-41.2,3.5c-15.5,0-30.1-1.2-41.2-3.5c-14.9-3-16-6.3-16-6.3c0.1-0.9,4.6-4.9,23.6-7.7c1.5-0.2,2.6-1.6,2.4-3.2
		c-0.2-1.5-1.6-2.6-3.2-2.4c-8.1,1.2-14.8,2.8-19.5,4.6c-2.2,0.9-8.9,3.5-8.9,8.6c0,5.1,6.5,8.9,19.8,11.7c3.2,0.7,6.8,1.3,10.6,1.8
		l-2.6,14.8c0,0.1,0,0.1,0,0.2c-0.5,4.5,2.7,8.6,7.1,9.2c0.4,0.1,0.9,0.1,1.3,0.1c2.6,0,5-1.2,6.6-3.2l5.7,62.4
		c0.1,1.5,1.4,2.5,2.8,2.5c0.1,0,0.2,0,0.3,0c1.5-0.1,2.7-1.5,2.5-3L90.2,109l0.6-6.7c0-0.2,0.1-0.4,0-0.5l0.1-1.5
		c4.8,0.2,9.7,0.4,14.7,0.4c4.5,0,9-0.1,13.3-0.3l0.5,8.5l-5.7,73c-0.1,1.5,1,2.9,2.6,3c0.1,0,0.1,0,0.2,0c1.4,0,2.7-1.1,2.8-2.6
		l4.9-62.4c1.6,2,4,3.2,6.6,3.2c0.4,0,0.8,0,1.3-0.1c4.5-0.7,7.6-4.7,7.1-9.2c0-0.1,0-0.1,0-0.2l-2.6-14.6c4.4-0.5,8.4-1.2,12.1-2
		c13.3-2.8,19.8-6.6,19.8-11.7C168.6,79.1,158.9,74.7,139.7,71.9z M81.8,115.1c-0.3,1.5-1.7,2.4-3.2,2.2c-1.5-0.2-2.5-1.5-2.4-3
		l2.7-15c2.1,0.2,4.3,0.4,6.6,0.6l-0.1,1.6L81.8,115C81.8,115.1,81.8,115.1,81.8,115.1z M133.7,114.3c0.1,1.5-0.9,2.8-2.4,3
		c-1.5,0.2-2.9-0.8-3.2-2.2c0,0,0,0,0-0.1l-3.2-13.6c0-0.2-0.1-0.3-0.2-0.5l-0.1-1c2.2-0.2,4.4-0.3,6.5-0.5L133.7,114.3z"/>
	<path d="M23.1,20.7H47c1.5,0,2.8-1.3,2.8-2.8c0-1.5-1.3-2.8-2.8-2.8H23.1c-1.5,0-2.8,1.3-2.8,2.8C20.3,19.5,21.5,20.7,23.1,20.7z"
		/>
	<path d="M23.1,32.3h12c1.5,0,2.8-1.3,2.8-2.8c0-1.5-1.3-2.8-2.8-2.8h-12c-1.5,0-2.8,1.3-2.8,2.8C20.3,31.1,21.5,32.3,23.1,32.3z"/>
	<path d="M189.8,15.1h-23.9c-1.5,0-2.8,1.3-2.8,2.8c0,1.5,1.3,2.8,2.8,2.8h23.9c1.5,0,2.8-1.3,2.8-2.8
		C192.6,16.4,191.4,15.1,189.8,15.1z"/>
	<path d="M177.9,26.7h-12c-1.5,0-2.8,1.3-2.8,2.8c0,1.5,1.3,2.8,2.8,2.8h12c1.5,0,2.8-1.3,2.8-2.8C180.7,28,179.4,26.7,177.9,26.7z"
		/>
	<path d="M45.5,149.3H21.6c-1.5,0-2.8,1.3-2.8,2.8c0,1.5,1.3,2.8,2.8,2.8h23.9c1.5,0,2.8-1.3,2.8-2.8
		C48.3,150.6,47.1,149.3,45.5,149.3z"/>
	<path d="M33.6,160.9h-12c-1.5,0-2.8,1.3-2.8,2.8s1.3,2.8,2.8,2.8h12c1.5,0,2.8-1.3,2.8-2.8S35.1,160.9,33.6,160.9z"/>
	<path d="M28.9,38.5c-1.5,0-2.8,1.3-2.8,2.8v9c0,0.7,0.3,1.5,0.8,2l18.5,18.5c0.5,0.5,1.3,0.8,2,0.8c0.7,0,1.4-0.3,2-0.8
		c1.1-1.1,1.1-2.9,0-4L31.7,49.1v-7.8C31.7,39.7,30.4,38.5,28.9,38.5z"/>
	<path d="M167.2,38.5c-1.5,0-2.8,1.3-2.8,2.8v7.8l-13,13c-1.1,1.1-1.1,2.9,0,4c0.5,0.5,1.3,0.8,2,0.8c0.7,0,1.4-0.3,2-0.8l13.8-13.8
		c0.5-0.5,0.8-1.2,0.8-2v-9C170,39.7,168.8,38.5,167.2,38.5z"/>
	<path d="M48.4,102.3l-23,23c-0.5,0.5-0.8,1.2-0.8,2v13.1c0,1.5,1.3,2.8,2.8,2.8c1.5,0,2.8-1.3,2.8-2.8v-11.9l22.2-22.2
		c1.1-1.1,1.1-2.9,0-4C51.3,101.2,49.5,101.2,48.4,102.3z"/>
</g>
</svg>
