<?xml version="1.0" encoding="utf-8"?>
<!-- Generator: Adobe Illustrator 20.1.0, SVG Export Plug-In . SVG Version: 6.00 Build 0)  -->
<svg version="1.1" id="Layer_1" xmlns="http://www.w3.org/2000/svg" xmlns:xlink="http://www.w3.org/1999/xlink" x="0px" y="0px"
	 viewBox="0 0 224.6 213.2" style="enable-background:new 0 0 224.6 213.2;" xml:space="preserve">
<path d="M198.5,169.4l-37.6-1.9v-31.3l1.6,1.2c2.8,2.1,6.2,3.1,9.5,3.1c3.5,0,7-1.2,9.9-3.5c5.1-4,7.2-10.7,5.4-16.9l-14-48.6
	c-1.2-4.2-4.5-7.4-8.7-8.5l-18.9-4.9v-4c6.5-4.1,10.8-11.4,10.8-19.6c0-12.8-10.4-23.2-23.2-23.2c-12.8,0-23.2,10.4-23.2,23.2
	c0,8.1,4.2,15.2,10.4,19.4v3.6L100.8,63c0,0,0,0-0.1,0c-3.7,1.1-6.7,3.9-8,7.6l-8.4,23.6l-0.9,0.2c-4.3,0.7-8,3.6-9.8,7.6
	l-20.4,44.8H13.8c-1.7,0-3.1,1.4-3.1,3.1c0,1.7,1.4,3.1,3.1,3.1h41.4c1.2,0,2.3-0.7,2.8-1.8l21.2-46.7c1-2.1,2.9-3.6,5.2-4l41.8-7.2
	c-0.5,0.5-1,1.1-1.5,1.7c-3,4.2-2.8,9.8,0.1,13.8l-10.7,2.5l-0.4-1.3c-1.3-4.3-5.7-6.7-10-5.5l-11.1,3.3c-4.3,1.3-6.7,5.7-5.5,10
	l1.4,4.7c0.6,2.1,2,3.8,3.9,4.8c1.2,0.7,2.5,1,3.9,1c0.8,0,1.5-0.1,2.3-0.3l11.1-3.3c2.1-0.6,3.8-2,4.8-3.9c0.6-1.1,0.9-2.3,1-3.4
	l15.2-3.6l23.9,17.7v35.7L89,163.8l7.7-28.5c0.5-1.7-0.5-3.4-2.2-3.8c-1.7-0.5-3.4,0.5-3.8,2.2l-7.9,29.1c-0.1,0.2-0.1,0.5-0.1,0.7
	l-17.8-0.9c-1.7-0.1-3.2,1.2-3.3,3c-0.1,1.7,1.2,3.2,3,3.3l133.6,6.8c5,0.3,8.9,4.3,8.9,9.3c0,5.1-4.2,9.3-9.3,9.3H15.9
	c-1.7,0-3.1,1.4-3.1,3.1c0,1.7,1.4,3.1,3.1,3.1h181.7c8.6,0,15.6-7,15.6-15.6C213.2,176.6,206.7,169.8,198.5,169.4z M116.3,34.5
	c0-9.4,7.6-17,17-17c9.4,0,17,7.6,17,17c0,6.4-3.6,12-8.8,14.9c-0.1,0-0.2,0.1-0.3,0.2c-2.3,1.2-5,1.9-7.8,1.9
	C123.9,51.5,116.3,43.9,116.3,34.5z M98.6,72.7c0.6-1.8,2.1-3.1,3.9-3.7l21.9-6c1.4-0.4,2.3-1.6,2.3-3v-3.1c2.1,0.6,4.3,0.9,6.5,0.9
	c2.1,0,4.2-0.3,6.2-0.8v3.6c0,1.4,1,2.7,2.3,3L163,69c2.1,0.5,3.7,2.1,4.3,4.2l14,48.6c1.1,3.8-0.2,7.8-3.3,10.3
	c-3.4,2.7-8.3,2.8-11.8,0.2l-32.3-24c-0.3-0.3-0.6-0.5-1-0.7l-1.8-1.3c-2.4-1.8-2.9-5.2-1.2-7.6c1.7-2.4,5-3,7.5-1.4l25.9,17.2
	c1.4,1,3.4,0.6,4.3-0.9c1-1.4,0.6-3.4-0.9-4.3l-8.7-5.8c2-3.1,2.6-6.8,1.6-10.4c-1.8-6.6-8.4-10.6-15.1-9.3l-53.1,9.1L98.6,72.7z
	 M145.6,89.9c0,0,0.1,0,0.1,0c3.5-0.7,6.9,1.4,7.9,4.8c0.5,1.8,0.2,3.8-0.8,5.3l-12.1-8c-0.6-0.4-1.2-0.7-1.8-1L145.6,89.9z
	 M109,117.8c-0.2,0.4-0.6,0.7-1.1,0.9l-11.1,3.3c-0.5,0.1-1,0.1-1.4-0.2c-0.4-0.2-0.7-0.6-0.9-1.1l-1.4-4.7c-0.3-1,0.3-2,1.2-2.3
	l11.1-3.3c0.2-0.1,0.3-0.1,0.5-0.1c0.8,0,1.5,0.5,1.8,1.3l1.4,4.7C109.3,116.8,109.2,117.3,109,117.8z"/>
</svg>
