<?xml version="1.0" encoding="utf-8"?>
<!-- Generator: Adobe Illustrator 20.1.0, SVG Export Plug-In . SVG Version: 6.00 Build 0)  -->
<svg version="1.1" id="Layer_1" xmlns="http://www.w3.org/2000/svg" xmlns:xlink="http://www.w3.org/1999/xlink" x="0px" y="0px"
	 viewBox="0 0 72.2 62.8" style="enable-background:new 0 0 72.2 62.8;" xml:space="preserve">
<g>
	<path d="M13.3,24v1.8v4v4V38v4.4c-0.6,0.3-1,0.9-1,1.6v2c0,1,0.8,1.8,1.8,1.8h2.2v5.5h-2.2c-0.4,0-0.8,0.3-0.8,0.8
		c0,0.4,0.3,0.8,0.8,0.8h3h4h3c0.4,0,0.8-0.3,0.8-0.8c0-0.4-0.3-0.8-0.8-0.8h-2.2v-5.5h2.2c1,0,1.8-0.8,1.8-1.8v-2
		c0-0.7-0.4-1.3-1-1.6V38V24c0-1.3-1-2.5-2.3-2.7l-1.8-3.6c-0.1-0.3-0.4-0.4-0.7-0.4h-0.2V8c0-0.4-0.3-0.8-0.8-0.8
		c-0.4,0-0.8,0.3-0.8,0.8v9.2h-0.2c-0.3,0-0.5,0.2-0.7,0.4l-1.8,3.6C14.3,21.6,13.3,22.7,13.3,24z M19.1,18.8h0.5l1.2,2.5h-3.6
		l1.2-2.5H19.1z M20.3,53.3h-2.5v-5.5h2.5V53.3z M21.1,46.3h-4h-3c-0.1,0-0.2-0.1-0.2-0.2v-2c0-0.1,0.1-0.2,0.2-0.2h5h5
		c0.1,0,0.2,0.1,0.2,0.2v2c0,0.1-0.1,0.2-0.2,0.2H21.1z M14.8,38.8h3.5v3.5h-3.5V38.8z M23.3,42.3h-3.5v-3.5h3.5V42.3z M23.3,37.3
		h-4.2h-4.2v-2.7h1.2c0.4,0,0.8-0.3,0.8-0.8c0-0.4-0.3-0.8-0.8-0.8h-1.2v-2.5h1.2c0.4,0,0.8-0.3,0.8-0.8c0-0.4-0.3-0.8-0.8-0.8h-1.2
		v-2.5h1.2c0.4,0,0.8-0.3,0.8-0.8c0-0.4-0.3-0.8-0.8-0.8h-1.2v-1c0-0.7,0.6-1.2,1.2-1.2h6c0.7,0,1.2,0.6,1.2,1.2V37.3z"/>
	<path d="M33.8,22v4v27c0,1,0.8,1.8,1.8,1.8h2c1,0,1.8-0.8,1.8-1.8V26v-4c0-0.7-0.4-1.3-1-1.6V8c0-0.3-0.1-0.5-0.4-0.6
		c-0.2-0.1-0.5-0.1-0.7,0c-2.7,1.4-4.4,4.1-4.4,7.1V17c0,0.2,0.1,0.4,0.2,0.5l2.7,2.7h-0.2C34.6,20.3,33.8,21.1,33.8,22z M34.3,14.5
		c0-2,0.9-3.9,2.5-5.1v9.8l-2.5-2.5V14.5z M37.6,21.8c0.1,0,0.2,0.1,0.2,0.2v3.2h-2.5V22c0-0.1,0.1-0.2,0.2-0.2H37.6z M37.8,53
		c0,0.1-0.1,0.2-0.2,0.2h-2c-0.1,0-0.2-0.1-0.2-0.2V26.8h2.5V53z"/>
	<path d="M54.1,42.3c-0.5,0-1,0.2-1.5,0.4l-2.7-29.1c-0.1-2,0.9-3.8,2.6-5c0.3-0.2,0.4-0.7,0.2-1c-0.2-0.3-0.7-0.4-1-0.2
		c-2.1,1.4-3.3,3.7-3.2,6.3l2.9,31.4v7c0,1.5,1.2,2.8,2.8,2.8c1.5,0,2.8-1.2,2.8-2.8v-6.6c0.1-0.1,0.1-0.2,0.1-0.3l2.9-31.4
		c0.1-2.5-1.1-4.9-3.2-6.2c-0.3-0.2-0.8-0.1-1,0.2c-0.2,0.3-0.1,0.8,0.2,1c1.7,1.1,2.6,3,2.6,4.9l-2.7,29.2
		C55.2,42.5,54.7,42.3,54.1,42.3z M55.3,52c0,0.7-0.6,1.2-1.2,1.2c-0.7,0-1.2-0.6-1.2-1.2v-4.6c0.4,0.2,0.8,0.3,1.2,0.3
		c0.5,0,0.9-0.1,1.2-0.3V52z M55.1,44.3c0.2,0.2,0.3,0.5,0.3,0.8c0,0.3-0.1,0.5-0.3,0.8c-0.2,0.3-0.6,0.5-1,0.5
		c-0.4,0-0.7-0.2-1-0.5c-0.2-0.2-0.3-0.5-0.3-0.8c0-0.3,0.1-0.5,0.3-0.8c0.2-0.3,0.6-0.5,1-0.5C54.5,43.8,54.8,44,55.1,44.3z"/>
</g>
</svg>
