<?xml version="1.0" encoding="utf-8"?>
<!-- Generator: Adobe Illustrator 20.1.0, SVG Export Plug-In . SVG Version: 6.00 Build 0)  -->
<svg version="1.1" id="Layer_1" xmlns="http://www.w3.org/2000/svg" xmlns:xlink="http://www.w3.org/1999/xlink" x="0px" y="0px"
	 viewBox="0 0 152.5 217" style="enable-background:new 0 0 152.5 217;" xml:space="preserve">
<path d="M136.7,95.1c-4.9,0-8.8,4-8.8,8.8c0,4.2,2.9,7.6,6.7,8.6c-0.6,8.2-4.6,8.5-19.3,8.5c-5.7,0-10,1.8-12.7,5
	c-3.7,4.3-3.3,9.9-3.1,11l-0.5,46c0,16.1-10.4,19.5-19.1,19.5c-17.4,0-19.4-12.6-19.4-22.1v-51.7h2v-6.9c19-1.1,33-18.9,33-43.2
	v-0.9h-1.7l0-59h-0.3c2.3-1,3.9-3.2,3.9-5.8c0-3.4-2.7-6.2-6.1-6.2c-3.4,0-6.1,2.7-6.1,6.1c0,2.8,1.9,5.6,4.5,6.3l0,58.6h-1.3v0.9
	c0,17.1-13.3,30.5-30,30.5c-16.4,0-30-13.7-30-30.5v-0.9h-0.9l0-58.7c2.4-0.8,4.1-3.3,4.1-6c0-3.4-2.7-6.2-6.1-6.2
	c-3.4,0-6.1,2.7-6.1,6c0,2.7,1.7,5.4,4.1,6.2l0,58.7h-2v0.9c0,27.2,17,41,33,43v7h2v51.7c0,17.2,7.9,25.9,23.3,25.9
	c8.5,0,22.9-3,22.9-23.2l0.5-46.1l0-0.3c0,0-0.6-4.9,2.3-8.2c2-2.3,5.3-3.6,9.9-3.6c14.2,0,21.9-0.2,23-12.1
	c4.1-0.8,7.2-4.4,7.2-8.7C145.6,99,141.6,95.1,136.7,95.1z M27.2,90.1c4.7,13.1,17.1,22.6,31.5,22.6c14.8,0,27-9,31.6-22.3
	c-3.6,16.6-15.1,28.1-29.8,28.1h-2V118l-1.7-0.1C39.9,116.7,30.5,104.4,27.2,90.1z M136.7,109c-2.8,0-5.1-2.3-5.1-5.1
	c0-2.8,2.3-5.1,5.1-5.1c2.8,0,5.1,2.3,5.1,5.1C141.8,106.7,139.5,109,136.7,109z"/>
</svg>
