<?xml version="1.0" encoding="utf-8"?>
<!-- Generator: Adobe Illustrator 20.1.0, SVG Export Plug-In . SVG Version: 6.00 Build 0)  -->
<svg version="1.1" id="Layer_1" xmlns="http://www.w3.org/2000/svg" xmlns:xlink="http://www.w3.org/1999/xlink" x="0px" y="0px"
	 viewBox="0 0 320 306.2" style="enable-background:new 0 0 320 306.2;" xml:space="preserve">
<path d="M164.1,53.2h-6.7V39.8h6.7V53.2z M157.3,203.2c0-1.2,0-2.3,0.1-3.4c-0.3-8-1.9-12.6-5-21.5l-12.5-35.9h41.7l-12.5,35.9
	c-3.1,8.9-4.7,13.5-5,21.5c0,1.1,0.1,2.2,0.1,3.4H157.3z M158.7,176.1c0.8,2.2,1.5,4.2,2.1,6.1c0.6-1.9,1.3-3.9,2.1-6.1l9.4-27
	h-22.9L158.7,176.1z M237.5,126.8h-45.8c-6.9-7.7-18.2-12.2-30.7-12.2v0l0,0c-12.5,0-23.9,4.5-30.7,12.2H84.3
	c-14.2,0-25.7,11.5-25.7,25.7v3.2c0,11.6,7.5,21.6,18.5,24.9c3.6,5.9,11.3,9.7,19.8,9.7c12.1,0,21.9-7.6,21.9-17
	c0-9.4-9.8-17-21.9-17c-8.3,0-15.8,3.6-19.5,9.4l5.6,3.6c2.5-3.8,7.9-6.3,13.9-6.3c8.2,0,15.2,4.7,15.2,10.3c0,5.6-7,10.3-15.2,10.3
	c-6.5,0-12.5-3-14.5-7.3l-0.7-1.5l-1.6-0.4c-8.8-2.1-14.9-9.8-14.9-18.8v-3.2c0-10.5,8.5-19.1,19.1-19.1h13.7
	c10.3,0,19.5,6.6,22.9,16.4l19.8,54.3v30.1l10,26.8v36.2h6.7v-37.4l-10-26.8v-30.1l-20.1-55.4c-1.9-5.7-5.5-10.6-10-14.2h16.1l1-1.3
	c5.4-6.7,15.6-10.9,26.6-10.9l0,0v0c11,0,21.2,4.2,26.6,10.9l1,1.3h15.7c-4.5,3.6-8.1,8.4-10,14.1l-20.2,55.4v30.1l-10,26.8v37.4
	h6.7v-36.2l10-26.8v-30.1l19.8-54.4c3.3-9.8,12.5-16.4,22.8-16.4h14.1c10.5,0,19.1,8.5,19.1,19.1v3.2c0,9-6.1,16.7-14.9,18.8
	l-1.6,0.4l-0.7,1.5c-2,4.3-8,7.3-14.5,7.3c-8.2,0-15.2-4.7-15.2-10.3c0-5.6,7-10.3,15.2-10.3c6,0,11.5,2.5,13.9,6.3l5.6-3.6
	c-3.7-5.8-11.2-9.4-19.5-9.4c-12.1,0-21.9,7.6-21.9,17c0,9.4,9.8,17,21.9,17c8.5,0,16.2-3.8,19.8-9.7c11-3.3,18.5-13.4,18.5-24.9
	v-3.2C263.2,138.4,251.7,126.8,237.5,126.8z M54.7,80.1c9.2-25.4,17.8-49.3,21.6-77h-6.8c-3.7,26.6-12.2,50-21.1,74.8
	C36.6,110.3,24.5,143.9,21.9,188c-2.5,43,7.5,82.1,13.4,105.4c0.4,1.4,0.7,2.7,1,3.9h6.9c-0.4-1.8-0.9-3.6-1.4-5.6
	c-5.8-23-15.6-61.4-13.2-103.4C31.1,145.2,43.1,112.1,54.7,80.1z M299.5,188c-2.6-44.1-14.7-77.7-26.4-110.2
	C264.2,53.1,255.7,29.7,252,3h-6.8c3.8,27.7,12.4,51.7,21.6,77c11.6,32,23.5,65.2,26,108.3c2.4,41.9-7.4,80.4-13.2,103.4
	c-0.5,2-1,3.8-1.4,5.6h6.9c0.3-1.3,0.6-2.6,1-3.9C292.1,270,302,230.9,299.5,188z"/>
</svg>
